# xmcd
# 
# Track frame offsets:
#     150
#     20429
#     38418
#     55025
#     77877
#     96980
#     115075
#     130979
#     150639
#     166386
# 
# Disc length: 2426
# 
# Revision: 0
# Processed by: cddbd v1.5.2PL0 Copyright (c) Steve Scherf et al.
# Submitted via: fre:ac v1.0.31
# 
DISCID=7309780a
DTITLE=EG Kight - A New Day
DYEAR=2014
DGENRE=Blues
TTITLE0=Holdin' On
TTITLE1=Graveyard Dead Blues
TTITLE2=Comin' Down With The Blues
TTITLE3=Don't Give Up
TTITLE4=Can't Catch The Wind
TTITLE5=Let's Get Down
TTITLE6=Bad Times
TTITLE7=Misunderstood
TTITLE8=Low Mileage Woman
TTITLE9=Time To Move On
EXTD=
EXTT0=
EXTT1=
EXTT2=
EXTT3=
EXTT4=
EXTT5=
EXTT6=
EXTT7=
EXTT8=
EXTT9=
PLAYORDER=
